<svg width="633" height="92" viewBox="0 0 633 92" fill="none" xmlns="http://www.w3.org/2000/svg">
<path d="M24.3407 91.1878C14.6044 91.1878 6.12072 89.1837 0 86.6785V67.6528H1.1104C4.59054 75.2902 13.1149 89.0144 22.9459 89.2446C29.7573 89.4071 36.4399 86.3332 36.4399 77.4433C36.4399 72.3111 32.2692 69.5283 26.2839 68.0252C22.3907 67.0231 16.27 65.52 12.6544 64.3961C5.55875 62.0196 0.690612 55.7567 0.690612 47.7469C0.690612 36.4805 13.4872 29.4728 25.8709 29.4728C34.6322 29.4728 42.1476 31.2264 47.4288 33.1019L49.1012 51.1255L47.9908 51.376C43.258 42.3642 34.8421 31.179 26.1552 31.416C19.8991 31.5853 14.8888 35.3566 14.8888 41.2403C14.8888 47.124 19.0595 49.3787 24.9027 50.8818C28.7958 51.8838 35.0587 53.2583 37.6993 54.0098C46.7382 56.515 52.8589 62.7711 52.8589 71.5324C52.8589 85.1754 38.6675 91.1878 24.3407 91.1878Z" fill="white"/>
<path d="M152.307 90.4361V54.5108C152.307 45.7495 149.389 39.8657 141.738 39.8657C137.012 39.8657 133.254 42.2423 130.891 44.8761V90.4429H113.646V54.3889C113.646 45.6276 111.006 39.8657 103.077 39.8657C98.4867 39.8657 95.1487 41.2402 92.2305 44.2464V90.4361H75.1209V45.1875C75.1209 43.9349 74.8907 43.0818 73.5298 42.486C71.6814 41.6735 69.4403 40.6715 67.1924 39.6829V38.9314L91.2555 28.0305H92.0883V42.8719L92.3659 42.9938C96.1237 36.9882 103.91 29.4727 114.621 29.4727C123.383 29.4727 129.226 34.9841 130.478 43.7454H130.898C134.101 37.6111 142.584 29.4727 153.296 29.4727C164.007 29.4727 169.572 37.3606 169.572 48.2479V90.4361H152.321H152.307Z" fill="white"/>
<path d="M212.492 47.9297H213.325V90.4362H196.215V55.2692L212.492 47.923V47.9297Z" fill="white"/>
<path d="M197.055 23.2573H196.222V4.90189H213.331V15.9178L197.055 23.264V23.2573Z" fill="white"/>
<path d="M279.332 40.8339H259.305V69.6568C259.305 78.1675 262.785 81.7966 269.318 81.7966C274.742 81.7966 279.197 79.2915 281.14 76.7863L281.973 77.1587C279.887 82.2909 272.934 91.3027 259.853 91.3027C250.949 91.3027 242.046 86.0893 242.046 79.5352C242.046 63.8881 242.601 40.8203 242.601 40.8203H229.683V40.062L257.903 27.7258H259.013V33.6028H282.291L279.325 40.8203L279.332 40.8339Z" fill="white"/>
<path d="M340.282 90.4362V55.1337C340.282 46.3724 337.499 39.4866 329.151 39.4866C323.308 39.4866 319.97 41.4908 318.304 43.7454C317.884 44.2464 317.607 45.7495 317.607 47.124V90.4362H300.497V19.012C300.497 17.7594 300.206 17.0417 298.866 16.3037C297.186 15.3829 294.58 14.0762 292.149 12.8778V12.1262L316.632 1.26599H317.742L317.322 42.872L317.6 42.9939C320.105 38.8637 328.169 29.4728 341.386 29.4728C353.627 29.4728 357.52 37.6111 357.52 48.6271V90.4362H340.268H340.282Z" fill="white"/>
<path d="M428.064 91.0658C420.833 91.0658 414.157 86.9357 413.595 79.1765L413.318 79.0478C410.4 85.304 404.001 91.0658 393.703 91.0658C386.885 91.0658 379.931 87.1862 379.931 78.5468C379.931 73.6651 384.664 68.4043 390.92 65.2762C403.439 59.0201 409.418 56.5149 413.318 54.3821V45.7563C413.237 40.6647 407.908 34.7133 402.884 35.37C397.271 36.1012 396.486 38.9991 396.486 41.1251V50.076C396.486 52.9671 391.475 55.4993 387.027 55.4993C382.992 55.4993 379.187 53.0957 379.099 49.6156C378.977 44.7339 382.437 42.2287 387.027 39.7236C395.788 34.9638 409.98 29.7097 415.268 29.4592C420.867 29.1951 426.791 32.1268 429.737 37.7194C430.434 39.1007 430.427 42.2287 430.427 45.1063C430.427 56.9956 430.008 60.0018 430.008 71.3969C430.008 78.9056 433.346 80.7879 436.961 80.7879C441.274 80.7879 442.94 78.5333 443.637 76.0281H444.612C444.192 82.4129 438.071 91.0523 428.058 91.0523L428.064 91.0658ZM413.318 56.1425C407.475 60.1508 396.655 62.9539 396.906 73.0422C397.007 77.1723 400.684 80.1515 404.692 80.5509C407.8 80.8624 410.67 80.4426 412.478 78.4249C413.291 77.5177 413.311 76.5494 413.311 75.2969V56.1425H413.318Z" fill="white"/>
<path d="M616.452 91.0658C609.221 91.0658 602.545 86.9357 601.983 79.1765L601.706 79.0478C598.788 85.304 592.389 91.0658 582.091 91.0658C575.273 91.0658 568.319 87.1862 568.319 78.5468C568.319 73.6651 573.052 68.4043 579.308 65.2762C591.827 59.0201 597.806 56.5149 601.706 54.3821V45.7563C601.625 40.6647 596.296 34.7133 591.272 35.37C585.659 36.1012 584.874 38.9991 584.874 41.1251V50.076C584.874 52.9671 579.864 55.4993 575.415 55.4993C571.38 55.4993 567.575 53.0957 567.487 49.6156C567.365 44.7339 570.825 42.2287 575.415 39.7236C584.176 34.9638 598.368 29.7097 603.656 29.4592C609.255 29.1951 615.18 32.1268 618.125 37.7194C618.822 39.1007 618.815 42.2287 618.815 45.1063C618.815 56.9956 618.396 60.0018 618.396 71.3969C618.396 78.9056 621.734 80.7879 625.349 80.7879C629.662 80.7879 631.328 78.5333 632.025 76.0281H633C632.58 82.4129 626.46 91.0523 616.446 91.0523L616.452 91.0658ZM601.706 56.1425C595.863 60.1508 585.043 62.9539 585.294 73.0422C585.395 77.1723 589.072 80.1515 593.08 80.5509C596.188 80.8624 599.058 80.4426 600.866 78.4249C601.679 77.5177 601.699 76.5494 601.699 75.2969V56.1425H601.706Z" fill="white"/>
<path d="M462.507 90.4362V45.3365C462.507 44.0839 462.229 43.285 460.923 42.6282C459.203 41.7616 456.691 40.5699 454.578 39.5746V38.8231L478.641 28.0103H479.474L479.197 46.8667H479.474C481.424 42.8584 486.705 29.466 498.669 29.466C503.537 29.466 507.295 33.0951 507.295 37.9767C507.295 42.8584 503.68 45.9459 500.199 46.1151C492.63 46.4875 492.413 41.2334 489.908 41.2334C485.873 41.2334 481.56 44.612 479.616 49.3718V90.4294H462.507V90.4362Z" fill="white"/>
<path d="M527.898 90.4362V48.3427C527.898 47.0902 527.607 45.7022 526.273 45.1063C524.33 44.2465 522.035 43.3189 519.557 42.3304V41.5788L544.175 30.6644H545.008V90.4362H527.898Z" fill="white"/>
<path d="M535.827 20.6099C541.518 20.6099 546.132 15.9962 546.132 10.3049C546.132 4.61359 541.518 -0.00012207 535.827 -0.00012207C530.136 -0.00012207 525.522 4.61359 525.522 10.3049C525.522 15.9962 530.136 20.6099 535.827 20.6099Z" fill="white"/>
</svg>
